<svg width="1200" height="900" viewBox="0 0 1200 900" fill="none" xmlns="http://www.w3.org/2000/svg">
<rect width="1200" height="900" fill="#F7F7F5"/>
<rect x="351.5" y="322.5" width="497" height="337" rx="18.5" fill="#4883FF" stroke="black" stroke-width="3"/>
<circle cx="600" cy="395" r="11.5" stroke="black"/>
<circle cx="600" cy="459" r="11.5" stroke="black"/>
<circle cx="600" cy="523" r="11.5" stroke="black"/>
<circle cx="600" cy="587" r="11.5" stroke="black"/>
<path d="M365 348C365 341.373 370.373 336 377 336H588C594.627 336 600 341.373 600 348V634C600 640.627 594.627 646 588 646H377C370.373 646 365 640.627 365 634V348Z" fill="white"/>
<path d="M363.5 348C363.5 340.544 369.544 334.5 377 334.5H588C595.042 334.5 600.75 340.208 600.75 347.25L599.25 348C599.25 342.201 594.213 337.5 588 337.5H377C371.201 337.5 366.5 342.201 366.5 348H363.5ZM600.75 634.75C600.75 641.792 595.042 647.5 588 647.5H377C369.544 647.5 363.5 641.456 363.5 634H366.5C366.5 639.799 371.201 644.5 377 644.5H588C594.213 644.5 599.25 639.799 599.25 634L600.75 634.75ZM377 647.5C369.544 647.5 363.5 641.456 363.5 634V348C363.5 340.544 369.544 334.5 377 334.5V337.5C371.201 337.5 366.5 342.201 366.5 348V634C366.5 639.799 371.201 644.5 377 644.5V647.5ZM588 334.5C595.042 334.5 600.75 340.208 600.75 347.25V634.75C600.75 641.792 595.042 647.5 588 647.5V644.5C594.213 644.5 599.25 639.799 599.25 634V348C599.25 342.201 594.213 337.5 588 337.5V334.5Z" fill="#111111"/>
<line x1="379" y1="364.5" x2="576" y2="364.5" stroke="black" stroke-width="3"/>
<line x1="379" y1="393.5" x2="576" y2="393.5" stroke="black" stroke-width="3"/>
<line x1="379" y1="418.5" x2="576" y2="418.5" stroke="black" stroke-width="3"/>
<path d="M600 348C600 341.373 605.373 336 612 336H823C829.627 336 835 341.373 835 348V634C835 640.627 829.627 646 823 646H612C605.373 646 600 640.627 600 634V348Z" fill="white"/>
<path d="M599.25 347.25C599.25 340.208 604.958 334.5 612 334.5H823C830.456 334.5 836.5 340.544 836.5 348H833.5C833.5 342.201 828.799 337.5 823 337.5H612C605.787 337.5 600.75 342.201 600.75 348L599.25 347.25ZM836.5 634C836.5 641.456 830.456 647.5 823 647.5H612C604.958 647.5 599.25 641.792 599.25 634.75L600.75 634C600.75 639.799 605.787 644.5 612 644.5H823C828.799 644.5 833.5 639.799 833.5 634H836.5ZM612 647.5C604.958 647.5 599.25 641.792 599.25 634.75V347.25C599.25 340.208 604.958 334.5 612 334.5V337.5C605.787 337.5 600.75 342.201 600.75 348V634C600.75 639.799 605.787 644.5 612 644.5V647.5ZM823 334.5C830.456 334.5 836.5 340.544 836.5 348V634C836.5 641.456 830.456 647.5 823 647.5V644.5C828.799 644.5 833.5 639.799 833.5 634V348C833.5 342.201 828.799 337.5 823 337.5V334.5Z" fill="#111111"/>
<line x1="641.939" y1="445.939" x2="690.939" y2="396.939" stroke="black" stroke-width="3"/>
<line x1="689.049" y1="396.927" x2="734.049" y2="440.927" stroke="black" stroke-width="3"/>
<path d="M792.499 378.938C792.465 378.11 791.766 377.467 790.938 377.501L777.45 378.059C776.622 378.093 775.979 378.792 776.013 379.619C776.047 380.447 776.746 381.09 777.573 381.056L789.563 380.561L790.059 392.55C790.093 393.378 790.792 394.021 791.619 393.987C792.447 393.953 793.09 393.254 793.056 392.427L792.499 378.938ZM733 442L734.104 443.016L792.104 380.016L791 379L789.896 377.984L731.896 440.984L733 442Z" fill="black"/>
<line x1="618" y1="364.5" x2="815" y2="364.5" stroke="black" stroke-width="3"/>
<line x1="618" y1="393.5" x2="815" y2="393.5" stroke="black" stroke-width="3"/>
<line x1="618" y1="418.5" x2="815" y2="418.5" stroke="black" stroke-width="3"/>
<line x1="618" y1="457.5" x2="815" y2="457.5" stroke="black" stroke-width="3"/>
</svg>
